<svg xmlns="http://www.w3.org/2000/svg" width="20" height="20" viewBox="0 0 20 20">
    <path fill="#000" fill-rule="nonzero" d="M6 3v1h-.5C4.676 4 4 4.676 4 5.5v9c0 .824.676 1.5 1.5 1.5h10c.824 0 1.5-.676 1.5-1.5v-9c0-.824-.676-1.5-1.5-1.5H15V3h-1v1H7V3H6zm-.5 2H6v1h1V5h7v1h1V5h.5c.281 0 .5.219.5.5V7H5V5.5c0-.281.219-.5.5-.5zM5 8h11v6.5c0 .281-.219.5-.5.5h-10a.494.494 0 0 1-.5-.5V8zm3 1v1h1V9H8zm2 0v1h1V9h-1zm2 0v1h1V9h-1zm2 0v1h1V9h-1zm-8 2v1h1v-1H6zm2 0v1h1v-1H8zm2 0v1h1v-1h-1zm2 0v1h1v-1h-1zm2 0v1h1v-1h-1zm-8 2v1h1v-1H6zm2 0v1h1v-1H8zm2 0v1h1v-1h-1z"/>
</svg>
