<svg xmlns="http://www.w3.org/2000/svg" width="20" height="20" viewBox="0 0 20 20">
    <path fill="#000" fill-rule="nonzero" d="M9 3C7.348 3 6 4.348 6 6s1.348 3 3 3c.313 0 .605-.063.89-.148-.093.062-.171.136-.257.21C9.422 9.036 9.215 9 9 9a5.01 5.01 0 0 0-5 5h1a3.982 3.982 0 0 1 3.75-3.977A4.47 4.47 0 0 0 8 12.5c0 2.48 2.02 4.5 4.5 4.5s4.5-2.02 4.5-4.5S14.98 8 12.5 8c-.57 0-1.11.117-1.613.313C11.559 7.758 12 6.933 12 6c0-1.652-1.348-3-3-3zm0 1c1.11 0 2 .89 2 2 0 1.11-.89 2-2 2-1.11 0-2-.89-2-2 0-1.11.89-2 2-2zm3.5 5c1.938 0 3.5 1.563 3.5 3.5 0 1.938-1.563 3.5-3.5 3.5A3.494 3.494 0 0 1 9 12.5C9 10.562 10.563 9 12.5 9zm-.5 1v2h-2v1h2v2h1v-2h2v-1h-2v-2h-1z"/>
</svg>
