<svg xmlns="http://www.w3.org/2000/svg" width="20" height="20" viewBox="0 0 20 20">
    <path fill="#090224" fill-rule="evenodd" d="M10.5 2c-.277 0-.5.223-.5.5V4h-.5A2.502 2.502 0 0 0 7 6.5v1C7 8.879 8.121 10 9.5 10h2c.826 0 1.5.674 1.5 1.5v1c0 .826-.674 1.5-1.5 1.5H11v-3c0-.277-.223-.5-.5-.5s-.5.223-.5.5v3h-.5c-.826 0-1.5-.674-1.5-1.5 0-.277-.223-.5-.5-.5s-.5.223-.5.5C7 13.879 8.121 15 9.5 15h.5v1.5c0 .277.223.5.5.5s.5-.223.5-.5V15h.5c1.379 0 2.5-1.121 2.5-2.5v-1c0-1.379-1.121-2.5-2.5-2.5H11V6c0-.277-.223-.5-.5-.5s-.5.223-.5.5v3h-.5C8.674 9 8 8.326 8 7.5v-1C8 5.674 8.674 5 9.5 5h2c.826 0 1.5.674 1.5 1.5 0 .277.223.5.5.5s.5-.223.5-.5C14 5.121 12.879 4 11.5 4H11V2.5c0-.277-.223-.5-.5-.5z"/>
</svg>
