<svg xmlns="http://www.w3.org/2000/svg" width="20" height="20" viewBox="0 0 20 20">
    <path fill="#000" fill-rule="nonzero" d="M3.5 3C2.677 3 2 3.677 2 4.5v8c0 .823.677 1.5 1.5 1.5H8v-1H3.5a.493.493 0 0 1-.5-.5V6h12v2h1V4.5c0-.823-.677-1.5-1.5-1.5h-11zm0 1h11c.281 0 .5.219.5.5V5H3v-.5c0-.281.219-.5.5-.5zM5 8v1h1V8H5zm2 0v1h6V8H7zm8.205.965c-.326.002-.651.129-.894.379l-4.665 4.742-.695 2.926 2.926-.698.098-.097 4.644-4.565c.5-.486.505-1.302.012-1.795l-.526-.525a1.259 1.259 0 0 0-.9-.367zm.006.994c.067 0 .134.027.187.08l.526.525a.253.253 0 0 1-.002.372l-.002.002-4.547 4.47-1.074.256.256-1.076 4.47-4.547a.26.26 0 0 1 .186-.082zM5 10v1h1v-1H5zm2 0v1h4v-1H7z"/>
</svg>
