<svg xmlns="http://www.w3.org/2000/svg" width="168" height="35" viewBox="0 0 168 35">
    <defs>
        <linearGradient id="a" x1=".432%" x2="125.347%" y1="126.84%" y2="0%">
            <stop offset="0%" stop-color="#FFD800"/>
            <stop offset="100%" stop-color="#00FF80"/>
        </linearGradient>
        <linearGradient id="b" x1="99.568%" x2="26.374%" y1="19.027%" y2="100%">
            <stop offset="0%" stop-color="#FD00C3"/>
            <stop offset="100%" stop-color="#A101FF"/>
        </linearGradient>
    </defs>
    <g fill="none" fill-rule="evenodd">
        <path fill="#4803FF" d="M0 12.005h35v10.99H0z"/>
        <path fill="url(#a)" fill-rule="nonzero" d="M22.896 0v11.061c-6.563 0-11.883 5.343-11.883 11.934H0C0 10.295 10.25 0 22.896 0z" transform="rotate(180 11.448 11.498)"/>
        <path fill="url(#b)" fill-rule="nonzero" d="M35 12.005v11.06c-6.563 0-11.883 5.344-11.883 11.935H12.104c0-12.7 10.251-22.995 22.896-22.995z"/>
        <path fill="#090224" fill-rule="nonzero" d="M55.314 21.249a6.453 6.453 0 0 1-2.266 1.767c-.87.405-1.842.607-2.918.607a6.832 6.832 0 0 1-2.691-.525 6.69 6.69 0 0 1-2.148-1.432 6.786 6.786 0 0 1-1.958-4.821 6.786 6.786 0 0 1 1.958-4.822 6.69 6.69 0 0 1 2.148-1.432 6.832 6.832 0 0 1 2.691-.525c1.04 0 1.955.181 2.746.544a6.388 6.388 0 0 1 2.112 1.576l-1.722 1.668a4.602 4.602 0 0 0-1.332-1.07c-.502-.265-1.097-.398-1.786-.398-.604 0-1.172.106-1.703.317-.532.211-.994.51-1.387.897a4.233 4.233 0 0 0-.933 1.405 4.731 4.731 0 0 0-.345 1.84c0 .676.115 1.29.345 1.84.23.55.54 1.017.933 1.404s.855.686 1.387.897c.531.212 1.1.317 1.703.317.725 0 1.369-.148 1.93-.444a4.747 4.747 0 0 0 1.496-1.26l1.74 1.65zm1.486-6.797h2.23v1.233h.145c.108-.218.253-.417.435-.599.18-.18.383-.338.607-.47a2.977 2.977 0 0 1 1.495-.418c.314 0 .583.03.807.091.223.06.413.139.57.236l-.634 2.156a2.252 2.252 0 0 0-.48-.172 2.787 2.787 0 0 0-.644-.063 1.952 1.952 0 0 0-1.568.725c-.187.23-.332.498-.434.806a3.163 3.163 0 0 0-.154 1.006v4.35H56.8v-8.88zm15.243 6.743a4.976 4.976 0 0 1-1.658 1.758c-.695.447-1.544.67-2.547.67a4.892 4.892 0 0 1-1.876-.353 4.514 4.514 0 0 1-1.495-.988 4.514 4.514 0 0 1-.988-1.495 4.941 4.941 0 0 1-.353-1.894c0-.64.115-1.248.344-1.822.23-.574.55-1.075.96-1.504.412-.43.898-.77 1.46-1.024a4.462 4.462 0 0 1 1.858-.38c.713 0 1.347.117 1.903.353a3.882 3.882 0 0 1 1.395.978c.375.417.659.91.852 1.477.194.568.29 1.185.29 1.85v.217a1.22 1.22 0 0 0-.018.2c-.012.06-.018.126-.018.198h-6.688c.048.363.148.674.299.934s.338.477.562.652c.223.176.468.302.734.381.266.079.538.118.816.118.543 0 .993-.124 1.35-.372.356-.247.637-.559.843-.933l1.975.979zm-2.157-3.444a1.537 1.537 0 0 0-.154-.526 1.85 1.85 0 0 0-.398-.544 2.087 2.087 0 0 0-.653-.416 2.412 2.412 0 0 0-.933-.164c-.508 0-.955.145-1.342.435-.386.29-.658.695-.815 1.215h4.295zm10.531 4.513h-.145c-.217.375-.556.695-1.015.96-.46.266-1.027.4-1.704.4a3.845 3.845 0 0 1-1.622-.354 4.337 4.337 0 0 1-1.36-.979 4.648 4.648 0 0 1-.933-1.495 5.126 5.126 0 0 1-.344-1.903c0-.689.115-1.323.344-1.903.23-.58.541-1.079.934-1.496a4.337 4.337 0 0 1 1.36-.978 3.845 3.845 0 0 1 1.621-.354c.677 0 1.245.133 1.704.399.46.266.798.586 1.015.96h.145l-.145-1.268v-3.897h2.374v12.977h-2.229v-1.069zm-2.374-.834c.314 0 .613-.057.897-.172.284-.115.535-.28.752-.498.218-.218.393-.484.526-.798.133-.314.2-.67.2-1.07 0-.398-.067-.754-.2-1.069a2.477 2.477 0 0 0-.526-.797 2.242 2.242 0 0 0-.752-.499 2.371 2.371 0 0 0-1.794.01 2.362 2.362 0 0 0-1.278 1.304c-.133.315-.2.665-.2 1.052 0 .386.067.737.2 1.051a2.362 2.362 0 0 0 1.278 1.305c.283.12.583.181.897.181zm18.27-.181a6.453 6.453 0 0 1-2.266 1.767c-.87.405-1.843.607-2.918.607a6.832 6.832 0 0 1-2.692-.525 6.69 6.69 0 0 1-2.147-1.432 6.786 6.786 0 0 1-1.958-4.821 6.786 6.786 0 0 1 1.958-4.822 6.69 6.69 0 0 1 2.147-1.432 6.832 6.832 0 0 1 2.692-.525c1.04 0 1.954.181 2.746.544a6.388 6.388 0 0 1 2.111 1.576l-1.721 1.668a4.602 4.602 0 0 0-1.333-1.07c-.501-.265-1.096-.398-1.785-.398-.604 0-1.172.106-1.704.317-.531.211-.994.51-1.386.897a4.233 4.233 0 0 0-.934 1.405 4.731 4.731 0 0 0-.344 1.84c0 .676.115 1.29.344 1.84.23.55.541 1.017.934 1.404.392.387.855.686 1.386.897.532.212 1.1.317 1.704.317.725 0 1.369-.148 1.93-.444a4.747 4.747 0 0 0 1.496-1.26l1.74 1.65zm5.51-7.087c.688 0 1.32.118 1.894.354.574.235 1.07.561 1.486.978.417.417.743.916.979 1.496a5.01 5.01 0 0 1 .353 1.903 5.01 5.01 0 0 1-.353 1.903 4.462 4.462 0 0 1-.979 1.495 4.484 4.484 0 0 1-1.486.979 4.941 4.941 0 0 1-1.894.353c-.689 0-1.32-.117-1.894-.353a4.484 4.484 0 0 1-1.487-.979 4.462 4.462 0 0 1-.978-1.495 5.01 5.01 0 0 1-.354-1.903c0-.689.118-1.323.354-1.903.235-.58.562-1.079.978-1.496a4.484 4.484 0 0 1 1.487-.978 4.941 4.941 0 0 1 1.894-.354zm0 7.268a2.325 2.325 0 0 0 1.631-.67c.217-.218.39-.484.517-.798.126-.314.19-.67.19-1.07 0-.398-.064-.754-.19-1.069-.127-.314-.3-.58-.517-.797a2.325 2.325 0 0 0-1.631-.67 2.266 2.266 0 0 0-1.631.67c-.218.217-.39.483-.517.797-.127.315-.19.671-.19 1.07 0 .398.063.755.19 1.07.127.313.299.58.516.797a2.266 2.266 0 0 0 1.632.67zm6.053-6.978h2.23v1.16h.145a3.115 3.115 0 0 1 1.133-1.051 3.204 3.204 0 0 1 1.586-.399c.676 0 1.244.157 1.703.471.46.315.786.701.98 1.16.277-.447.67-.83 1.177-1.15.508-.32 1.124-.48 1.849-.48.544 0 1.015.087 1.414.262.398.175.728.42.988.734s.456.692.589 1.133c.133.44.199.921.199 1.44v5.601h-2.374v-5.165c0-1.209-.496-1.813-1.487-1.813-.314 0-.592.07-.833.209a1.859 1.859 0 0 0-.608.562c-.163.235-.29.516-.38.842-.09.327-.136.677-.136 1.052v4.313h-2.375v-5.165c0-1.209-.52-1.813-1.558-1.813-.302 0-.568.07-.798.209-.23.139-.423.326-.58.562a2.754 2.754 0 0 0-.362.842 4.177 4.177 0 0 0-.127 1.052v4.313h-2.375v-8.88zm15.878 0h2.23v1.07h.144c.218-.375.556-.695 1.015-.961.46-.266 1.027-.399 1.704-.399.568 0 1.109.118 1.622.354.514.235.967.561 1.36.978.392.417.703.916.933 1.496.23.58.344 1.214.344 1.903 0 .688-.114 1.323-.344 1.903-.23.58-.54 1.078-.933 1.495a4.337 4.337 0 0 1-1.36.979 3.845 3.845 0 0 1-1.622.353c-.677 0-1.244-.133-1.704-.398-.459-.266-.797-.586-1.015-.961h-.145l.145 1.269v3.715h-2.374V14.452zm4.604 6.978c.314 0 .613-.06.897-.181a2.362 2.362 0 0 0 1.278-1.305c.133-.314.2-.665.2-1.051 0-.387-.067-.737-.2-1.052a2.362 2.362 0 0 0-1.278-1.305 2.371 2.371 0 0 0-1.794-.01c-.284.116-.535.282-.753.5a2.477 2.477 0 0 0-.525.797c-.133.315-.2.671-.2 1.07 0 .398.067.755.2 1.07.133.313.308.58.525.797.218.217.469.383.753.498.283.115.583.172.897.172zm11.745.96h-.145a4.005 4.005 0 0 1-1.006.87c-.393.243-.897.363-1.514.363-.459 0-.89-.075-1.296-.226a3.371 3.371 0 0 1-1.06-.626 2.797 2.797 0 0 1-.707-.96 2.96 2.96 0 0 1-.254-1.233c0-.459.091-.873.272-1.241.182-.369.435-.686.762-.952.326-.266.71-.468 1.15-.607a4.773 4.773 0 0 1 1.441-.208c.58 0 1.058.045 1.432.136.375.09.683.184.925.28v-.271c0-.472-.188-.861-.562-1.17-.375-.308-.84-.462-1.396-.462-.821 0-1.516.345-2.084 1.033l-1.722-1.178c.942-1.184 2.23-1.776 3.86-1.776 1.378 0 2.43.323 3.154.97.725.646 1.088 1.604 1.088 2.873v5.328h-2.338v-.942zm0-2.664a4.909 4.909 0 0 0-.861-.317 3.774 3.774 0 0 0-.97-.118c-.568 0-1.006.124-1.314.372-.308.248-.462.553-.462.915 0 .363.148.653.444.87.296.218.637.327 1.024.327a2.171 2.171 0 0 0 1.55-.626c.187-.187.332-.405.435-.652.102-.248.154-.505.154-.77zm4.223-5.274h2.23v1.233h.144c.109-.218.254-.417.435-.599.181-.18.384-.338.607-.47a2.977 2.977 0 0 1 1.496-.418c.314 0 .583.03.806.091.224.06.414.139.571.236l-.634 2.156a2.252 2.252 0 0 0-.48-.172 2.787 2.787 0 0 0-.644-.063 1.952 1.952 0 0 0-1.568.725c-.187.23-.332.498-.435.806a3.163 3.163 0 0 0-.154 1.006v4.35h-2.374v-8.88zm15.243 6.743a4.976 4.976 0 0 1-1.658 1.758c-.695.447-1.544.67-2.547.67a4.892 4.892 0 0 1-1.876-.353 4.514 4.514 0 0 1-1.495-.988 4.514 4.514 0 0 1-.988-1.495 4.941 4.941 0 0 1-.354-1.894c0-.64.115-1.248.345-1.822.23-.574.55-1.075.96-1.504.411-.43.898-.77 1.46-1.024a4.462 4.462 0 0 1 1.857-.38c.713 0 1.348.117 1.903.353a3.882 3.882 0 0 1 1.396.978c.375.417.659.91.852 1.477.193.568.29 1.185.29 1.85v.217a1.22 1.22 0 0 0-.018.2c-.012.06-.018.126-.018.198h-6.688c.048.363.148.674.299.934.15.26.338.477.562.652.223.176.468.302.734.381.265.079.537.118.815.118.544 0 .994-.124 1.35-.372.357-.247.638-.559.843-.933l1.976.979zm-2.157-3.444a1.537 1.537 0 0 0-.154-.526 1.85 1.85 0 0 0-.399-.544 2.087 2.087 0 0 0-.652-.416 2.412 2.412 0 0 0-.934-.164c-.507 0-.954.145-1.34.435-.388.29-.66.695-.817 1.215h4.296z"/>
    </g>
</svg>
