<svg xmlns="http://www.w3.org/2000/svg" width="20" height="20" viewBox="0 0 20 20">
    <path fill="#000" fill-rule="nonzero" d="M6 4c-1.099 0-2 .901-2 2s.901 2 2 2 2-.901 2-2-.901-2-2-2zm0 1c.558 0 1 .442 1 1s-.442 1-1 1-1-.442-1-1 .442-1 1-1zm8 0c-1.099 0-2 .901-2 2s.901 2 2 2 2-.901 2-2-.901-2-2-2zm0 1c.558 0 1 .442 1 1s-.442 1-1 1-1-.442-1-1 .442-1 1-1zm-4 2c-1.099 0-2 .901-2 2s.901 2 2 2 2-.901 2-2-.901-2-2-2zm0 4h-.81l-.15.12c-.18.16-.34.33-.47.52h-.01c-.87 1.09-1.3 2.62-1.46 3.36h1.02c.2-.79.65-2.2 1.45-3h.85c.44.49.79 1.18 1.05 1.83v.01c.17.43.3.84.39 1.16h1.03c-.07-.29-.2-.72-.37-1.2v-.01c-.17-.46-.38-.97-.65-1.44-.13-.25-.28-.48-.45-.7-.14-.19-.29-.36-.45-.51l-.15-.14H10zM4.5 9C3.67 9 3 9.67 3 10.5v3.21l1 1V16h1v-1.71l-1-1V10.5c0-.28.22-.5.5-.5H7c0-.35.06-.69.18-1H4.5zM10 9c.558 0 1 .442 1 1s-.442 1-1 1-1-.442-1-1 .442-1 1-1zm3.01 1l-.15.19c-.2.26-.38.55-.56.86-.11.2-.21.41-.31.63-.01.02-.01.03-.02.05.08.1.16.21.24.31.17.22.32.45.44.66.24-.63.52-1.23.85-1.7h.99c.85 1.32 1.67 3.52 1.98 5h1.03c-.34-1.64-1.26-4.29-2.34-5.79L15 10h-1.99z"/>
</svg>
