<svg xmlns="http://www.w3.org/2000/svg" width="20" height="20" viewBox="0 0 20 20">
    <path fill="#090224" fill-rule="evenodd" d="M5.406 5C4.758 5 4.207 5.418 4 6h12c-.207-.582-.758-1-1.406-1H5.406zM4.5 7C3.676 7 3 7.676 3 8.5v5c0 .824.676 1.5 1.5 1.5h11c.824 0 1.5-.676 1.5-1.5v-5c0-.824-.676-1.5-1.5-1.5h-11zM5 8h10c0 .547.453 1 1 1v4c-.547 0-1 .453-1 1H5c0-.547-.453-1-1-1V9c.547 0 1-.453 1-1zm5 1c-1.098 0-2 .902-2 2 0 1.098.902 2 2 2 1.098 0 2-.902 2-2 0-1.098-.902-2-2-2zm-4 1c-.55 0-1 .45-1 1s.45 1 1 1 1-.45 1-1-.45-1-1-1zm4 0c.559 0 1 .441 1 1 0 .559-.441 1-1 1-.559 0-1-.441-1-1 0-.559.441-1 1-1zm4 0c-.55 0-1 .45-1 1s.45 1 1 1 1-.45 1-1-.45-1-1-1z"/>
</svg>
