<svg xmlns="http://www.w3.org/2000/svg" width="40" height="40" viewBox="0 0 40 40">
    <path fill="#0B0B0B" fill-rule="nonzero" d="M9 8c-1.645 0-3 1.355-3 3v16c0 1.645 1.355 3 3 3h14.836l3.707 3.707a1 1 0 0 0 1.414 0l.668-.668.668.668a1 1 0 1 0 1.414-1.414l-.668-.668.668-.668a1 1 0 0 0 .203-1.117C33.114 29.449 34 28.326 34 27V11c0-1.645-1.355-3-3-3H9zm0 2h22c.563 0 1 .437 1 1v16c0 .563-.437 1-1 1h-.836l-2-2H30V12H14v14h6.031l.004.008a1 1 0 0 0 .258.449L21.836 28H9c-.563 0-1-.437-1-1V11c0-.563.437-1 1-1zm1 2v4h2v-4h-2zm6 2h12v10h-1.836l-1.707-1.707a1 1 0 0 0-.45-.258l-3.487-.93-.813-.812a1 1 0 1 0-1.414 1.414l.812.813L19.5 24H16V14zm-5 4a1 1 0 1 0 0 2 1 1 0 0 0 0-2zm-1 4v4h2v-4h-2zm11.488 1.43l1.746.468 6.352 6.352-1.336 1.336-6.352-6.352-.468-1.746c.02-.018.04-.038.058-.058z"/>
</svg>
