<svg xmlns="http://www.w3.org/2000/svg" width="64" height="70" viewBox="0 0 64 70">
    <g fill="none" fill-rule="evenodd" transform="translate(0 .059)">
        <rect width="41" height="68" x="11" y="1.941" fill="#76EAFF" rx="5"/>
        <path fill="#000" fill-rule="nonzero" d="M29 0c-.55 0-1 .445-1 .996v8.945H15a1 1 0 1 0 0 2h1v20H5c-1.652 0-3 1.348-3 3 0 1.301.84 2.403 2 2.817V61.94H1a1 1 0 1 0 0 2h62a1 1 0 1 0 0-2h-3v-34h1a1 1 0 1 0 0-2h-9v-2c0-1.101-.898-2-2-2h-4v-10h1a1 1 0 1 0 0-2H34V5.996c0-.55-.45-1-1-1s-1 .45-1 1v3.945h-2V.996C30 .446 29.55 0 29 0zM18 11.941h26v50H18v-50zm5 4a1 1 0 0 0-1 1v6a1 1 0 1 0 2 0v-6a1 1 0 0 0-1-1zm8 0a1 1 0 0 0-1 1v2a1 1 0 1 0 2 0v-2a1 1 0 0 0-1-1zm8 0a1 1 0 0 0-1 1v6a1 1 0 1 0 2 0v-6a1 1 0 0 0-1-1zm-8 8a1 1 0 0 0-1 1v1c-2.207 0-4 1.793-4 4v1c0 2.207 1.793 4 4 4h2c1.102 0 2 .899 2 2v1c0 1.102-.898 2-2 2v-3a1 1 0 1 0-2 0v3c-1.102 0-2-.898-2-2a1 1 0 1 0-2 0c0 2.207 1.793 4 4 4v1a1 1 0 1 0 2 0v-1c2.207 0 4-1.793 4-4v-1c0-2.207-1.793-4-4-4v-3a1 1 0 1 0-2 0v3c-1.102 0-2-.898-2-2v-1c0-1.101.898-2 2-2h2c1.102 0 2 .899 2 2a1 1 0 1 0 2 0c0-2.207-1.793-4-4-4v-1a1 1 0 0 0-1-1zm15 0h4v4h8v12H48a1 1 0 1 0 0 2h10v20H46v-38zm5 6a1 1 0 1 0 0 2h2a1 1 0 1 0 0-2h-2zm-46 4h11v2H5c-.55 0-1-.449-1-1 0-.55.45-1 1-1zm46 0a1 1 0 1 0 0 2h2a1 1 0 1 0 0-2h-2zm-45 4h10v24h-2v-4.05c0-1.102-.898-2-2-2h-2c-1.102 0-2 .898-2 2v4.05H6v-24zm4 2a1 1 0 1 0 0 2h2a1 1 0 1 0 0-2h-2zm0 4a1 1 0 1 0 0 2h2a1 1 0 1 0 0-2h-2zm13 0a1 1 0 0 0-1 1v6a1 1 0 1 0 2 0v-6a1 1 0 0 0-1-1zm16 0a1 1 0 0 0-1 1v12a1 1 0 1 0 2 0v-12a1 1 0 0 0-1-1zm12 0a1 1 0 1 0 0 2h2a1 1 0 1 0 0-2h-2zm-41 4a1 1 0 1 0 0 2h2a1 1 0 1 0 0-2h-2zm21 0a1 1 0 0 0-1 1v8a1 1 0 1 0 2 0v-8a1 1 0 0 0-1-1zm20 0a1 1 0 1 0 0 2h2a1 1 0 1 0 0-2h-2zm-41 4a1 1 0 1 0 0 2h2a1 1 0 1 0 0-2h-2zm41 0a1 1 0 1 0 0 2h2a1 1 0 1 0 0-2h-2zm-28 2a1 1 0 0 0-1 1v2a1 1 0 1 0 2 0v-2a1 1 0 0 0-1-1zm28 2a1 1 0 1 0 0 2h2a1 1 0 1 0 0-2h-2zm-41 1.95h2v4h-2v-4z"/>
    </g>
</svg>
