<svg xmlns="http://www.w3.org/2000/svg" width="60" height="68" viewBox="0 0 60 68">
    <g fill="none" fill-rule="evenodd">
        <rect width="50" height="68" x="5" fill="#69F8B6" rx="5"/>
        <path fill="#000" fill-rule="nonzero" d="M21.656 6c-1.336 0-2.59.52-3.535 1.465l-6.656 6.656A4.964 4.964 0 0 0 10 17.656v6.778l-8.547 5.128A3.013 3.013 0 0 0 0 32.133V59c0 1.652 1.348 3 3 3h54c1.652 0 3-1.348 3-3V32.133a3.013 3.013 0 0 0-1.453-2.57L50 24.433V9c0-1.652-1.348-3-3-3H21.656zM22 8h25c.55 0 1 .45 1 1v24a1 1 0 1 0 2 0v-6.234l7.516 4.511a1 1 0 0 1 .484.856v1.219L31.227 45.355a3.015 3.015 0 0 1-2.454 0L2 33.352v-1.22c0-.347.184-.679.484-.855L10 26.766V33a1 1 0 1 0 2 0V18h7c1.652 0 3-1.348 3-3V8zm-2 .5V15c0 .55-.45 1-1 1h-6.5c.11-.164.234-.32.379-.465l6.656-6.656c.145-.145.3-.27.465-.379zm9 9.5c-3.86 0-7 3.14-7 7v6c0 3.86 3.14 7 7 7h6a1 1 0 1 0 0-2h-6c-2.758 0-5-2.242-5-5v-6c0-2.758 2.242-5 5-5h2c2.758 0 5 2.242 5 5v6c0 .55-.45 1-1 1s-1-.45-1-1v-5c0-2.207-1.793-4-4-4s-4 1.793-4 4v4c0 2.207 1.793 4 4 4 1.05 0 2-.414 2.715-1.078A2.983 2.983 0 0 0 35 34c1.652 0 3-1.348 3-3v-6c0-3.86-3.14-7-7-7h-2zm1 6c1.102 0 2 .898 2 2v4c0 1.102-.898 2-2 2-1.102 0-2-.898-2-2v-4c0-1.102.898-2 2-2zM2 35.547L27.953 47.18a5.057 5.057 0 0 0 4.094 0L58 35.547V59c0 .55-.45 1-1 1H3c-.55 0-1-.45-1-1V35.547zM5 52a1 1 0 0 0-1 1v2a1 1 0 1 0 2 0v-2a1 1 0 0 0-1-1zm5 0a1 1 0 0 0-1 1v2a1 1 0 1 0 2 0v-2a1 1 0 0 0-1-1zm5 0a1 1 0 0 0-1 1v2a1 1 0 1 0 2 0v-2a1 1 0 0 0-1-1zm5 0a1 1 0 0 0-1 1v2a1 1 0 1 0 2 0v-2a1 1 0 0 0-1-1zm5 0a1 1 0 0 0-1 1v2a1 1 0 1 0 2 0v-2a1 1 0 0 0-1-1zm5 0a1 1 0 0 0-1 1v2a1 1 0 1 0 2 0v-2a1 1 0 0 0-1-1zm5 0a1 1 0 0 0-1 1v2a1 1 0 1 0 2 0v-2a1 1 0 0 0-1-1zm5 0a1 1 0 0 0-1 1v2a1 1 0 1 0 2 0v-2a1 1 0 0 0-1-1zm5 0a1 1 0 0 0-1 1v2a1 1 0 1 0 2 0v-2a1 1 0 0 0-1-1zm5 0a1 1 0 0 0-1 1v2a1 1 0 1 0 2 0v-2a1 1 0 0 0-1-1zm5 0a1 1 0 0 0-1 1v2a1 1 0 1 0 2 0v-2a1 1 0 0 0-1-1z"/>
    </g>
</svg>
